{
    "asset" : {
        "generator" : "Khronos glTF Blender I/O v1.1.46",
        "version" : "2.0"
    },
    "scene" : 0,
    "scenes" : [
        {
            "name" : "Scene",
            "nodes" : [
                0
            ]
        }
    ],
    "nodes" : [
        {
            "mesh" : 0,
            "name" : "Card",
            "translation" : [
                1.2294902801513672,
                0.004996120929718018,
                0.8722431659698486
            ]
        }
    ],
    "materials" : [
        {
            "doubleSided" : true,
            "emissiveFactor" : [
                0,
                0,
                0
            ],
            "name" : "Card Face",
            "pbrMetallicRoughness" : {
                "baseColorTexture" : {
                    "index" : 0,
                    "texCoord" : 0
                },
                "metallicFactor" : 0,
                "roughnessFactor" : 0.5
            }
        },
        {
            "doubleSided" : true,
            "emissiveFactor" : [
                0,
                0,
                0
            ],
            "name" : "Card Back",
            "pbrMetallicRoughness" : {
                "baseColorTexture" : {
                    "index" : 1,
                    "texCoord" : 0
                },
                "metallicFactor" : 0,
                "roughnessFactor" : 0.699999988079071
            }
        }
    ],
    "meshes" : [
        {
            "name" : "Cube.002",
            "primitives" : [
                {
                    "attributes" : {
                        "POSITION" : 0,
                        "NORMAL" : 1,
                        "TEXCOORD_0" : 2
                    },
                    "indices" : 3,
                    "material" : 0
                },
                {
                    "attributes" : {
                        "POSITION" : 4,
                        "NORMAL" : 5,
                        "TEXCOORD_0" : 6
                    },
                    "indices" : 7,
                    "material" : 1
                }
            ]
        }
    ],
    "textures" : [
        {
            "source" : 0
        },
        {
            "source" : 1
        }
    ],
    "images" : [
        {
            "bufferView" : 4,
            "mimeType" : "image/png",
            "name" : "treachery_baliset"
        },
        {
            "bufferView" : 9,
            "mimeType" : "image/png",
            "name" : "treachery_back"
        }
    ],
    "accessors" : [
        {
            "bufferView" : 0,
            "componentType" : 5126,
            "count" : 20,
            "max" : [
                0.12500908970832825,
                0.0005752170691266656,
                0.180653914809227
            ],
            "min" : [
                -0.12500908970832825,
                0.0005752170691266656,
                -0.180653914809227
            ],
            "type" : "VEC3"
        },
        {
            "bufferView" : 1,
            "componentType" : 5126,
            "count" : 20,
            "type" : "VEC3"
        },
        {
            "bufferView" : 2,
            "componentType" : 5126,
            "count" : 20,
            "type" : "VEC2"
        },
        {
            "bufferView" : 3,
            "componentType" : 5123,
            "count" : 54,
            "type" : "SCALAR"
        },
        {
            "bufferView" : 5,
            "componentType" : 5126,
            "count" : 100,
            "max" : [
                0.12500908970832825,
                0.0005752170691266656,
                0.180653914809227
            ],
            "min" : [
                -0.12500908970832825,
                -0.0005752170691266656,
                -0.180653914809227
            ],
            "type" : "VEC3"
        },
        {
            "bufferView" : 6,
            "componentType" : 5126,
            "count" : 100,
            "type" : "VEC3"
        },
        {
            "bufferView" : 7,
            "componentType" : 5126,
            "count" : 100,
            "type" : "VEC2"
        },
        {
            "bufferView" : 8,
            "componentType" : 5123,
            "count" : 174,
            "type" : "SCALAR"
        }
    ],
    "bufferViews" : [
        {
            "buffer" : 0,
            "byteLength" : 240,
            "byteOffset" : 0
        },
        {
            "buffer" : 0,
            "byteLength" : 240,
            "byteOffset" : 240
        },
        {
            "buffer" : 0,
            "byteLength" : 160,
            "byteOffset" : 480
        },
        {
            "buffer" : 0,
            "byteLength" : 108,
            "byteOffset" : 640
        },
        {
            "buffer" : 0,
            "byteLength" : 820296,
            "byteOffset" : 748
        },
        {
            "buffer" : 0,
            "byteLength" : 1200,
            "byteOffset" : 821044
        },
        {
            "buffer" : 0,
            "byteLength" : 1200,
            "byteOffset" : 822244
        },
        {
            "buffer" : 0,
            "byteLength" : 800,
            "byteOffset" : 823444
        },
        {
            "buffer" : 0,
            "byteLength" : 348,
            "byteOffset" : 824244
        },
        {
            "buffer" : 0,
            "byteLength" : 941652,
            "byteOffset" : 824592
        }
    ],
    "buffers" : [
        {
            "byteLength" : 1766244,
            "uri" : "data:application/octet-stream;base64,"
        }
    ]
}
